<?xml version="1.0" encoding="utf-8"?>
<!-- Generator: Adobe Illustrator 18.0.0, SVG Export Plug-In . SVG Version: 6.00 Build 0)  -->
<!DOCTYPE svg PUBLIC "-//W3C//DTD SVG 1.1//EN" "http://www.w3.org/Graphics/SVG/1.1/DTD/svg11.dtd">
<svg version="1.1" id="Layer_1" xmlns="http://www.w3.org/2000/svg" xmlns:xlink="http://www.w3.org/1999/xlink" x="0px" y="0px"
	 viewBox="0 0 34 34" enable-background="new 0 0 34 34" xml:space="preserve">
<g>
	<g>
		<g>
			<g>
				<path fill="#FF815A" d="M17,34C7.6,34,0,26.4,0,17C0,7.6,7.6,0,17,0c9.4,0,17,7.6,17,17C34,26.4,26.4,34,17,34z M17,2
					C8.8,2,2,8.8,2,17c0,8.2,6.8,15,15,15c8.2,0,15-6.8,15-15C32,8.8,25.2,2,17,2z"/>
			</g>
			<g>
				<path fill="#FF815A" d="M17,33c-0.6,0-1-0.4-1-1V2c0-0.6,0.4-1,1-1c0.6,0,1,0.4,1,1v30.2C18,32.6,17.6,33,17,33z"/>
			</g>
			<g>
				<path fill="#FF815A" d="M32,18H2c-0.6,0-1-0.4-1-1c0-0.6,0.4-1,1-1h30.2c0.6,0,1,0.4,1,1C33.2,17.6,32.6,18,32,18z"/>
			</g>
			<g>
				<path fill="#FF815A" d="M15,33.6C10.4,32,7,25.2,7,17c0-8.4,3.4-15.2,8-16.6L18,1c0,0.6-0.4,1-1,1c-4.4,0-8,6.8-8,15
					c0,8.2,3.6,15,8,15c0.6,0,1,0.4,1,1L15,33.6z"/>
			</g>
			<g>
				<path fill="none" d="M16,33c0-0.6,0.4-1,1-1c4.4,0,8-6.8,8-15c0-8.2-3.6-15-8-15c-0.6,0-1-0.4-1-1l2.6-0.8
					C23.4,1.4,27,8.4,27,17c0,8.4-3.4,15.2-8,16.6L16,33z"/>
			</g>
		</g>
	</g>
</g>
</svg>
