<?xml version="1.0" encoding="utf-8"?>
<!-- Generator: Adobe Illustrator 18.0.0, SVG Export Plug-In . SVG Version: 6.00 Build 0)  -->
<!DOCTYPE svg PUBLIC "-//W3C//DTD SVG 1.1//EN" "http://www.w3.org/Graphics/SVG/1.1/DTD/svg11.dtd">
<svg version="1.1" id="Layer_1" xmlns="http://www.w3.org/2000/svg" xmlns:xlink="http://www.w3.org/1999/xlink" x="0px" y="0px"
	 viewBox="0 0 26.2 31.6" enable-background="new 0 0 26.2 31.6" xml:space="preserve">
<g>
	<g>
		<g>
			<path fill="#FF815A" d="M13,18c-4.4,0-8-4-8-9s3.6-9,8-9c4.4,0,8,4,8,9S17.4,18,13,18z M13,2C9.6,2,7,5.2,7,9c0,3.8,2.6,7,6,7
				c3.4,0,6-3.2,6-7C19,5.2,16.4,2,13,2z"/>
		</g>
		<g>
			<path fill="#FF815A" d="M25,31.6c-0.6,0-1-0.4-1-1v-6.8c0-3.8-3-6.8-6.8-6.8h-0.6c-0.6,0-1-0.4-1-1c0-0.6,0.4-1,1-1h0.8
				c4.8,0,8.8,4,8.8,8.8v6.8C26,31.2,25.6,31.6,25,31.6z"/>
		</g>
		<g>
			<path fill="#FF815A" d="M1,31.6c-0.6,0-1-0.4-1-1v-6.8C0,19,4,15,8.8,15h0.8c0.6,0,1,0.4,1,1c0,0.6-0.4,1-1,1H8.8
				C5,17,2,20,2,23.8v6.8C2,31.2,1.6,31.6,1,31.6z"/>
		</g>
	</g>
</g>
</svg>
